<svg width="130" height="130" viewBox="0 0 130 130" fill="none" xmlns="http://www.w3.org/2000/svg">
<path d="M76.2354 100.767C65.8945 96.8091 55.2581 96.2003 45.5081 98.9403C38.7127 100.767 32.2127 104.42 26.3036 108.987L22.1672 112.64L20.9854 113.858L23.6444 116.294C23.9399 116.294 23.9399 116.598 24.2354 116.902C24.8263 117.511 25.4172 117.816 26.3036 118.425L28.0762 119.642L29.849 118.12C30.1444 117.816 30.7354 117.207 31.3263 116.902C36.6445 112.336 42.5535 109.291 48.7581 107.769C56.7354 105.638 65.3035 105.942 73.8717 109.291C80.9626 112.031 95.44 115.38 112.872 107.769L113.463 107.465L114.349 106.551C114.349 106.247 114.645 106.247 114.94 105.942C116.417 104.116 117.895 102.289 119.076 100.158L124.985 90.7202L115.531 96.2002C101.644 104.116 88.94 105.638 76.2354 100.767Z" fill="#E16626"/>
<path d="M35.7523 67.8927C43.7295 65.7616 52.2977 66.0661 60.8659 69.415C70.3205 73.0683 94.5478 78.2439 121.73 52.975L126.161 48.4083L126.457 48.1038L127.639 46.8861L127.048 45.3639C126.752 44.1461 126.161 42.6239 125.57 41.1017L124.093 36.8394L121.139 39.8838C120.843 40.4927 120.252 40.7971 119.661 41.406C106.661 55.106 86.5704 69.1105 63.525 60.5861C53.1841 56.6283 42.5477 56.0194 32.7977 58.7594C23.3432 61.4994 15.0704 66.675 7.38859 73.9816V73.6772L2.95677 78.5483C2.95677 78.8528 2.66137 78.8528 2.36591 79.1572L1.47949 80.0705L1.77496 81.2883C2.07042 82.8105 2.66131 84.3327 2.95677 85.855L4.72951 90.7261L7.68406 86.7684C7.97951 86.1595 8.5704 85.855 8.86586 85.2461C15.0704 79.4617 23.6386 71.2416 35.7523 67.8927Z" fill="#E16626"/>
<path d="M7.09196 62.4124C13.8874 55.1057 21.5692 50.539 29.8419 48.1034C37.8192 45.9723 46.3874 46.2768 54.9556 49.6256C81.5465 59.6723 104.592 43.2323 114.637 34.4034L118.478 30.4457L119.956 29.2278L118.774 27.4012C117.887 26.4879 117.297 25.2701 116.41 24.0523L114.637 21.6167L112.569 23.7478C112.274 24.0523 111.683 24.6612 111.387 24.9656C98.9783 37.1434 79.7738 49.6257 57.9101 41.1012C47.5692 37.1435 36.9328 36.5345 27.1828 39.2745C20.9783 41.1012 15.0692 44.1456 9.16009 48.1034L2.95552 53.279C2.36461 53.8879 2.06916 54.1924 1.47825 54.8012L0.887395 55.4101V56.3235C0.59194 58.4546 0.591904 60.5857 0.296449 62.4124L0.000976562 70.0235L5.02374 64.5434C5.61465 63.9345 6.2056 63.0212 7.09196 62.4124Z" fill="#E16626"/>
<path d="M84.8026 121.475L84.2117 123.302L84.8026 121.475C83.9163 121.171 83.3254 120.866 82.439 120.562C72.0981 116.604 61.4617 115.995 51.7117 118.735C49.6435 119.344 47.5754 119.953 45.5072 120.866L38.4162 124.215L36.6436 125.128L42.5526 127.26C44.3254 127.868 46.0981 128.477 47.8708 129.086L48.7571 129.391L49.6435 129.086C50.5299 128.782 51.4163 128.173 52.3026 128.173C52.8935 128.173 53.4845 127.868 54.0754 127.564C61.1663 125.737 68.8481 125.737 77.1208 128.477C78.0072 128.782 78.5981 129.086 79.4845 129.391L80.9618 129.999L81.8481 129.695C83.9163 129.086 86.2799 128.477 88.0526 127.564L96.3253 124.52L87.7572 122.388C86.8708 122.084 85.689 121.78 84.8026 121.475Z" fill="#E16626"/>
<path d="M130.007 58.4541L125.575 63.0208C124.984 63.6297 124.393 64.2386 123.802 64.8475C111.689 76.7208 92.1887 89.5074 70.3251 80.983C59.9841 77.0252 49.3478 76.4164 39.5978 79.1564C30.4387 81.8964 22.1659 86.7675 14.7795 94.0742L10.9386 98.3364L9.75684 99.8586L10.9386 101.685C11.825 102.903 12.4159 103.816 13.0069 105.034L14.7795 107.774L16.8477 105.034C17.1432 104.73 17.7341 104.121 18.0295 103.816C25.1204 95.9008 32.8023 91.0297 41.6659 88.5941C49.6432 86.463 58.2114 86.7674 66.7796 90.1163C74.1659 92.8563 81.8478 93.7697 89.5296 92.8564C103.121 91.3342 116.711 83.4186 126.757 74.5897C127.348 73.9808 127.939 73.6764 128.53 73.0675L129.416 72.1541V71.2408C129.416 69.4141 129.711 67.2831 129.711 65.4564L130.007 58.4541Z" fill="#E16626"/>
<path d="M17.7338 30.4462L16.8475 28.6195L17.7338 30.4462C19.5065 29.5328 21.5748 28.9239 23.3475 28.315C31.3248 26.1839 39.893 26.4883 48.4612 29.8372C54.0748 31.9683 59.6884 32.8817 65.893 32.8817C78.3021 32.8817 90.7111 28.315 102.234 19.4861L106.666 15.8328L108.143 14.615L105.484 12.4838C104.598 11.5705 103.416 10.6572 102.234 10.0483L100.461 8.83057L98.9839 10.0483C98.3929 10.3528 98.0975 10.9616 97.5066 11.2661C81.8475 23.4439 66.1885 26.7928 51.4157 21.0084C40.7794 17.0506 30.1429 16.1372 19.5066 19.4861C18.6202 19.7906 17.7338 20.095 16.552 20.3994L15.9612 20.7039L15.0747 21.6172C15.0747 21.9216 14.7793 21.9217 14.4839 22.2261C13.3021 24.0528 11.8247 25.575 10.6429 27.4017L5.0293 36.2306L14.1884 31.3595C15.6657 31.3595 16.8474 30.7506 17.7338 30.4462Z" fill="#E16626"/>
<path d="M41.9585 9.74168L42.8448 10.0461C46.6857 11.5684 52.5949 13.0906 59.9812 13.0906C67.6631 13.0906 75.0495 11.2639 82.4358 8.21946L91.5948 3.65279L85.3904 1.52173C83.6176 0.912846 81.8448 0.303956 79.7767 -0.000488281H78.8903L78.004 0.303882C77.1176 0.608327 76.2312 1.21729 75.3448 1.52173C66.4812 4.87063 57.6176 5.47952 49.0494 3.04396C48.163 2.73951 47.2767 2.43501 46.3903 2.13057L45.504 1.82611L44.6176 2.13057C42.8448 2.73946 41.0721 3.34838 39.2994 4.26172L32.5039 7.30616L39.5949 9.43722C40.1858 9.13278 41.0721 9.43724 41.9585 9.74168Z" fill="#E16626"/>
</svg>
