<svg width="77" height="77" viewBox="0 0 77 77" fill="none" xmlns="http://www.w3.org/2000/svg">
<path opacity="0.5" d="M42.6946 76.4154H34.3067C21.2386 76.4154 14.7045 76.4154 10.249 72.579C5.79357 68.7425 4.8695 62.3206 3.02141 49.4763L1.9644 42.1307C0.525695 32.1317 -0.19366 27.1324 1.85558 22.8579C3.90483 18.5833 8.26661 15.9851 16.9902 10.7885L22.241 7.66058C30.1629 2.94155 34.1239 0.582031 38.5006 0.582031C42.8774 0.582031 46.8385 2.94155 54.7601 7.66058L60.0111 10.7885C68.7346 15.9851 73.0966 18.5833 75.1456 22.8579C77.195 27.1324 76.4757 32.1317 75.0368 42.1307L73.98 49.4763C72.1316 62.3206 71.2076 68.7425 66.7523 72.579C62.2968 76.4154 55.7626 76.4154 42.6946 76.4154Z" fill="#D76827"/>
<path d="M24.2812 61.25C24.2812 59.6795 25.5545 58.4062 27.125 58.4062H49.875C51.4455 58.4062 52.7188 59.6795 52.7188 61.25C52.7188 62.8205 51.4455 64.0938 49.875 64.0938H27.125C25.5545 64.0938 24.2812 62.8205 24.2812 61.25Z" fill="#D76827"/>
</svg>
