<svg width="84" height="72" viewBox="0 0 84 72" fill="none" xmlns="http://www.w3.org/2000/svg">
<path d="M38.8757 13H29.5007C21.6439 13 17.7155 13 15.2748 15.4408C12.834 17.8815 12.834 21.8099 12.834 29.6667L12.8342 55.7083H71.1669L71.1673 29.6667C71.1673 21.8099 71.1673 17.8815 68.7265 15.4408C66.2856 13 62.3573 13 54.5006 13H45.1256V33.7192L47.9615 30.4108C49.0844 29.1003 51.0573 28.9486 52.3677 30.0717C53.6781 31.195 53.8298 33.1679 52.7069 34.4783L44.3736 44.2004C43.7798 44.8929 42.9131 45.2917 42.0006 45.2917C41.0886 45.2917 40.2219 44.8929 39.6282 44.2004L31.2947 34.4783C30.1715 33.1679 30.3233 31.195 31.6337 30.0717C32.944 28.9486 34.9169 29.1003 36.0402 30.4108L38.8757 33.7192V13Z" fill="#D76827"/>
<path d="M12.9609 61.957H71.0393C70.8255 65.2512 70.2543 67.3629 68.7259 68.8912C66.2851 71.332 62.3568 71.332 54.5001 71.332H29.5001C21.6434 71.332 17.715 71.332 15.2742 68.8912C13.7459 67.3629 13.1745 65.2512 12.9609 61.957Z" fill="#D76827"/>
<path d="M16.5377 0.5H67.4636C76.4127 0.5 83.6673 7.99992 83.6673 17.2515C83.6673 22.6238 81.2211 27.4055 77.4173 30.4708V29.2939C77.4177 25.6871 77.4182 22.3801 77.0565 19.69C76.6582 16.7277 75.7211 13.5966 73.1457 11.0214C70.5707 8.44621 67.4398 7.50917 64.4773 7.11087C61.7873 6.74921 58.4802 6.74958 54.8736 6.75004H29.1277C25.5209 6.74958 22.2139 6.74921 19.5238 7.11087C16.5615 7.50917 13.4304 8.44621 10.8552 11.0214C8.28007 13.5966 7.34299 16.7277 6.94469 19.69C6.58303 22.3801 6.58344 25.687 6.58386 29.2938L6.5839 30.4708C2.78019 27.4053 0.333984 22.6237 0.333984 17.2515C0.333984 7.99992 7.58865 0.5 16.5377 0.5Z" fill="#D76827"/>
</svg>
